<svg width="8" height="6" viewBox="0 0 8 6" fill="none" xmlns="http://www.w3.org/2000/svg">
<path d="M4.96608 0.394652L4.96607 0.394664C4.86844 0.492291 4.86844 0.65057 4.96607 0.748197L4.96608 0.748203L6.2763 2.05843L6.82502 2.60714H6.04902H0.571428C0.433359 2.60714 0.321428 2.71907 0.321428 2.85714C0.321428 2.99521 0.43336 3.10714 0.571428 3.10714H6.04902H6.82504L6.2763 3.65586L4.96609 4.96601C4.96609 4.96601 4.96608 4.96602 4.96607 4.96603C4.86843 5.06371 4.86844 5.22203 4.96609 5.3197C5.06372 5.41724 5.222 5.41724 5.31962 5.31968L5.31966 5.31965M4.96608 0.394652L5.54691 5.54697L5.31966 5.31965M4.96608 0.394652C5.06371 0.29702 5.22199 0.29702 5.31962 0.394652L5.31962 0.394661L7.60536 2.68033L7.83267 2.45309L7.60539 2.68037C7.70295 2.778 7.70295 2.93629 7.60539 3.03391L4.96608 0.394652ZM5.31966 5.31965L7.60536 3.03395L5.31966 5.31965Z" stroke="#333333" stroke-width="0.6"/>
</svg>
