<svg width="3" height="3" viewBox="0 0 3 3" fill="none" xmlns="http://www.w3.org/2000/svg">
<g clip-path="url(#clip0_0_14782)">
<path d="M1.5 0.75C1.2775 0.75 1.05999 0.81598 0.874984 0.939597C0.689979 1.06321 0.545785 1.23891 0.460636 1.44448C0.375487 1.65005 0.353209 1.87625 0.396617 2.09448C0.440025 2.3127 0.547171 2.51316 0.704505 2.67049C0.861839 2.82783 1.0623 2.93497 1.28052 2.97838C1.49875 3.02179 1.72495 2.99951 1.93052 2.91436C2.13609 2.82922 2.31179 2.68502 2.4354 2.50002C2.55902 2.31501 2.625 2.0975 2.625 1.875C2.62466 1.57674 2.50602 1.29079 2.29512 1.07988C2.08421 0.868976 1.79826 0.75034 1.5 0.75ZM2.25 1.92857L1.35038 1.99783C1.33617 1.99783 1.32255 1.99219 1.3125 1.98214C1.30245 1.97209 1.29681 1.95847 1.29681 1.94426L1.44643 1.125H1.55357V1.82143H2.25V1.92857Z" fill="white"/>
<path d="M1.64062 0.5625C1.65306 0.5625 1.66498 0.559208 1.67377 0.553347C1.68256 0.547487 1.6875 0.539538 1.6875 0.53125V0.5C1.6875 0.466848 1.66775 0.435054 1.63258 0.411612C1.59742 0.38817 1.54973 0.375 1.5 0.375C1.45027 0.375 1.40258 0.38817 1.36742 0.411612C1.33225 0.435054 1.3125 0.466848 1.3125 0.5V0.53125C1.3125 0.539538 1.31744 0.547487 1.32623 0.553347C1.33502 0.559208 1.34694 0.5625 1.35938 0.5625H1.64062Z" fill="white"/>
<path d="M2.11827 0.336612L2.0831 0.371786C2.06991 0.384979 2.0625 0.402869 2.0625 0.421523C2.0625 0.440177 2.06991 0.458068 2.0831 0.47126L2.71624 1.1044C2.72943 1.11759 2.74732 1.125 2.76598 1.125C2.78463 1.125 2.80252 1.11759 2.81571 1.1044L2.85089 1.06923C2.94689 0.971838 3.00049 0.840441 3 0.703691C2.99951 0.56694 2.94496 0.435931 2.84827 0.339234C2.75157 0.242536 2.62056 0.187994 2.48381 0.187503C2.34706 0.187012 2.21566 0.240611 2.11827 0.336612Z" fill="white"/>
<path d="M0.149112 1.06923L0.184286 1.1044C0.197479 1.11759 0.215369 1.125 0.234023 1.125C0.252677 1.125 0.270568 1.11759 0.28376 1.1044L0.916903 0.47126C0.930091 0.458068 0.9375 0.440177 0.9375 0.421523C0.9375 0.402869 0.930091 0.384979 0.916903 0.371786L0.881728 0.336612C0.784338 0.240611 0.652941 0.187012 0.516191 0.187503C0.37944 0.187994 0.248431 0.242536 0.151734 0.339234C0.0550361 0.435931 0.000494495 0.56694 3.34589e-06 0.703691C-0.000487804 0.840441 0.0531113 0.971838 0.149112 1.06923Z" fill="white"/>
</g>
<defs>
<clipPath id="clip0_0_14782">
<rect width="2.1875" height="2.1875" fill="white" transform="scale(1.37143)"/>
</clipPath>
</defs>
</svg>
