<svg width="21" height="21" viewBox="0 0 21 21" fill="none" xmlns="http://www.w3.org/2000/svg">
<path d="M10.5 0C4.7007 0 0 4.7007 0 10.5C0 16.2993 4.7007 21 10.5 21C16.2993 21 21 16.2986 21 10.5C21 4.70139 16.2993 0 10.5 0ZM10.5 19.6875C5.42585 19.6875 1.3125 15.5741 1.3125 10.5C1.3125 5.42585 5.42585 1.3125 10.5 1.3125C15.5741 1.3125 19.6875 5.42585 19.6875 10.5C19.6875 15.5741 15.5741 19.6875 10.5 19.6875ZM14.4375 9.84374H11.1562V6.5625C11.1562 6.20025 10.8622 5.90625 10.5 5.90625C10.1377 5.90625 9.84374 6.20025 9.84374 6.5625V9.84374H6.5625C6.20025 9.84374 5.90625 10.1377 5.90625 10.5C5.90625 10.8622 6.20025 11.1562 6.5625 11.1562H9.84374V14.4375C9.84374 14.7997 10.1377 15.0937 10.5 15.0937C10.8622 15.0937 11.1562 14.7997 11.1562 14.4375V11.1562H14.4375C14.7997 11.1562 15.0937 10.8622 15.0937 10.5C15.0937 10.1377 14.7997 9.84374 14.4375 9.84374Z" fill="white"/>
</svg>
