<svg width="25" height="8" viewBox="0 0 25 8" fill="none" xmlns="http://www.w3.org/2000/svg">
<path d="M0.5 3.18213C0.223858 3.18213 2.41411e-08 3.40599 0 3.68213C-2.41411e-08 3.95827 0.223858 4.18213 0.5 4.18213L0.5 3.18213ZM24.8536 4.03568C25.0488 3.84042 25.0488 3.52384 24.8536 3.32858L21.6716 0.146597C21.4763 -0.0486654 21.1597 -0.0486654 20.9645 0.146597C20.7692 0.341859 20.7692 0.658441 20.9645 0.853704L23.7929 3.68213L20.9645 6.51056C20.7692 6.70582 20.7692 7.0224 20.9645 7.21766C21.1597 7.41293 21.4763 7.41293 21.6716 7.21766L24.8536 4.03568ZM0.5 4.18213L24.5 4.18213L24.5 3.18213L0.5 3.18213L0.5 4.18213Z" fill="black"/>
</svg>
