<svg width="8" height="6" viewBox="0 0 8 6" fill="none" xmlns="http://www.w3.org/2000/svg">
<path d="M4.95181 0.382395L4.9518 0.382406C4.85415 0.476412 4.85415 0.623805 4.9518 0.717811L4.95181 0.717816L6.26203 1.97915L6.81093 2.50757H6.04902H0.571428C0.414356 2.50757 0.307142 2.62725 0.307142 2.75053C0.307142 2.87381 0.414357 2.99349 0.571428 2.99349H6.04902H6.81095L6.26203 3.52191L4.95182 4.78317C4.85416 4.87721 4.85414 5.02463 4.95177 5.11868L4.95181 0.382395ZM4.95181 0.382395C5.05603 0.282058 5.22966 0.282059 5.33388 0.382394L5.33389 0.382403L7.61962 2.58279M4.95181 0.382395L7.61962 2.58279M7.61962 2.58279C7.61963 2.5828 7.61965 2.58281 7.61966 2.58283C7.71724 2.67683 7.71724 2.82424 7.61966 2.91824C7.61964 2.91825 7.61963 2.91826 7.61962 2.91827L5.33392 5.11868L7.61962 2.58279ZM5.33389 5.11872C5.22967 5.21898 5.05605 5.21898 4.95182 5.11873L5.33389 5.11872Z" stroke="#333333" stroke-width="0.6"/>
</svg>
