<svg width="13" height="131" viewBox="0 0 13 131" fill="none" xmlns="http://www.w3.org/2000/svg">
<rect x="0.5" y="22.5" width="12" height="86" rx="1.5" fill="#CCEBFA" stroke="#A3D6EE"/>
<circle cx="6.5" cy="66" r="4" fill="#74C2EE"/>
<g clip-path="url(#clip0_0_14932)">
<path d="M6.5 64.75C6.12916 64.75 5.76665 64.86 5.45831 65.066C5.14996 65.272 4.90964 65.5649 4.76773 65.9075C4.62581 66.2501 4.58868 66.6271 4.66103 66.9908C4.73338 67.3545 4.91195 67.6886 5.17418 67.9508C5.4364 68.213 5.77049 68.3916 6.13421 68.464C6.49792 68.5363 6.87492 68.4992 7.21753 68.3573C7.56014 68.2154 7.85298 67.975 8.05901 67.6667C8.26503 67.3584 8.375 66.9958 8.375 66.625C8.37443 66.1279 8.17671 65.6513 7.8252 65.2998C7.47369 64.9483 6.99711 64.7506 6.5 64.75ZM7.75 66.7143L6.25063 66.8297C6.22695 66.8297 6.20424 66.8203 6.1875 66.8036C6.17076 66.7868 6.16135 66.7641 6.16135 66.7404L6.41071 65.375H6.58929V66.5357H7.75V66.7143Z" fill="white"/>
<path d="M6.73438 64.4375C6.7551 64.4375 6.77497 64.432 6.78962 64.4222C6.80427 64.4125 6.8125 64.3992 6.8125 64.3854V64.3333C6.8125 64.2781 6.77958 64.2251 6.72097 64.186C6.66237 64.1469 6.58288 64.125 6.5 64.125C6.41712 64.125 6.33763 64.1469 6.27903 64.186C6.22042 64.2251 6.1875 64.2781 6.1875 64.3333V64.3854C6.1875 64.3992 6.19573 64.4125 6.21038 64.4222C6.22503 64.432 6.2449 64.4375 6.26562 64.4375H6.73438Z" fill="white"/>
<path d="M7.53045 64.061L7.47183 64.1196C7.44985 64.1416 7.4375 64.1714 7.4375 64.2025C7.4375 64.2336 7.44985 64.2634 7.47183 64.2854L8.52707 65.3407C8.54905 65.3627 8.57887 65.375 8.60996 65.375C8.64105 65.375 8.67087 65.3627 8.69286 65.3407L8.75148 65.282C8.91148 65.1197 9.00081 64.9007 8.99999 64.6728C8.99918 64.4449 8.90827 64.2266 8.74711 64.0654C8.58595 63.9042 8.3676 63.8133 8.13968 63.8125C7.91177 63.8117 7.69277 63.901 7.53045 64.061Z" fill="white"/>
<path d="M4.24852 65.282L4.30714 65.3407C4.32913 65.3627 4.35895 65.375 4.39004 65.375C4.42113 65.375 4.45095 65.3627 4.47293 65.3407L5.52817 64.2854C5.55015 64.2634 5.5625 64.2336 5.5625 64.2025C5.5625 64.1714 5.55015 64.1416 5.52817 64.1196L5.46955 64.061C5.30723 63.901 5.08823 63.8117 4.86032 63.8125C4.6324 63.8133 4.41405 63.9042 4.25289 64.0654C4.09173 64.2266 4.00082 64.4449 4.00001 64.6728C3.99919 64.9007 4.08852 65.1197 4.24852 65.282Z" fill="white"/>
</g>
<defs>
<clipPath id="clip0_0_14932">
<rect width="5" height="5" fill="white" transform="translate(4 63.5)"/>
</clipPath>
</defs>
</svg>
