<svg width="36" height="36" viewBox="0 0 36 36" fill="none" xmlns="http://www.w3.org/2000/svg">
<path fill-rule="evenodd" clip-rule="evenodd" d="M14.9552 13.4478C14.9552 11.4897 16.5426 9.90234 18.5007 9.90234C20.4588 9.90234 22.0462 11.4897 22.0462 13.4478C22.0462 15.4059 20.4588 16.9933 18.5007 16.9933C16.5426 16.9933 14.9552 15.4059 14.9552 13.4478ZM18.5007 7.90234C15.438 7.90234 12.9552 10.3851 12.9552 13.4478C12.9552 15.1473 13.7197 16.6682 14.9236 17.6855C11.4008 19.1029 8.91406 22.5521 8.91406 26.582V28.0971C8.91406 28.6494 9.36178 29.0971 9.91406 29.0971C10.4663 29.0971 10.9141 28.6494 10.9141 28.0971V26.582C10.9141 22.3924 14.3104 18.9961 18.5 18.9961C22.6895 18.9961 26.0858 22.3924 26.0858 26.582V28.0971C26.0858 28.6494 26.5336 29.0971 27.0858 29.0971C27.6381 29.0971 28.0858 28.6494 28.0858 28.0971V26.582C28.0858 22.5524 25.5995 19.1036 22.0773 17.6859C23.2815 16.6687 24.0462 15.1475 24.0462 13.4478C24.0462 10.3851 21.5634 7.90234 18.5007 7.90234Z" fill="#03486F" fill-opacity="0.5"/>
</svg>
