<svg width="348" height="893" viewBox="0 0 348 893" fill="none" xmlns="http://www.w3.org/2000/svg">
<path fill-rule="evenodd" clip-rule="evenodd" d="M265.929 0.0588327C260.85 0.424077 254.177 1.47673 243.347 3.62024C240.8 4.12468 231.992 5.8439 223.777 7.44106C200.295 12.0053 197.689 12.5121 186.256 14.7371C170.953 17.7154 166.767 18.5295 149.315 21.9209C140.78 23.5794 131.14 25.4534 127.891 26.0852C124.643 26.717 115.002 28.5909 106.468 30.2495C97.933 31.908 88.553 33.7331 85.6231 34.3054C82.6933 34.8777 74.616 36.4503 67.6736 37.8006C53.1671 40.6215 49.2856 41.4789 45.0919 42.788C31.8549 46.9205 21.8393 54.4278 14.1724 65.964C8.0413 75.1888 3.97659 85.9347 1.92293 98.3475C0.957364 104.183 0.557142 108.316 0.29589 115.145C-0.0587005 124.417 -0.114969 822.406 0.238695 828.257C1.15238 843.385 3.685 854.322 8.60549 864.387C13.6805 874.77 20.9485 882.564 29.9673 887.295C36.0139 890.466 43.2004 892.152 53.247 892.752C58.8186 893.086 281.871 893.081 288.126 892.748C299.253 892.155 306.717 890.494 313.916 887.008C329.253 879.581 340.446 863.549 344.747 842.848C346.883 832.565 347.582 821.829 347.353 802.78C347.283 796.92 347.17 785.768 347.1 777.998C346.903 755.287 346.551 713.495 346.419 696.704C346.35 688.169 346.239 674.933 346.172 667.29C346.104 659.647 345.898 635.571 345.718 613.789C345.537 592.006 345.329 568.66 345.254 561.909C345.134 550.766 344.65 494.409 344.335 455.022C344.268 446.425 344.154 433.239 344.087 425.724C344.018 418.208 343.812 394.341 343.626 372.686C343.295 334.241 342.962 296.075 342.714 268.81C342.424 237.004 342.352 228.974 342.239 214.383C341.521 123.115 340.991 70.8453 340.731 66.1541C339.823 49.6973 337.604 39.8348 332.583 29.9537C327.9 20.7393 321.735 14.3501 313.378 10.0508C309.172 7.88691 307.973 7.53602 291.29 3.59083C289.125 3.07875 285.632 2.24496 283.531 1.73798C281.428 1.231 278.718 0.660548 277.509 0.47063C275.332 0.128778 268.391 -0.118115 265.929 0.0588327Z" fill="#484D5F"/>
</svg>
