<svg width="229" height="463" viewBox="0 0 229 463" fill="none" xmlns="http://www.w3.org/2000/svg">
<rect x="39.2439" y="79.7143" width="33.8564" height="131.23" rx="4.5" transform="rotate(-2.50455 39.2439 79.7143)" stroke="#6F0581"/>
<rect x="176.9" y="89.3723" width="36.1802" height="109.566" rx="4.5" transform="rotate(-2.50455 176.9 89.3723)" stroke="#6F0581"/>
<rect x="5.72787" y="228.94" width="3.48564" height="132.23" rx="1.74194" transform="rotate(-2.50455 5.72787 228.94)" fill="#6F0581"/>
<rect x="179.171" y="88.1112" width="31.5327" height="131.23" rx="4.5" transform="rotate(-2.50455 179.171 88.1112)" stroke="#361BDC"/>
<rect x="181.592" y="90.3292" width="26.8851" height="143.073" rx="4.5" transform="rotate(-2.50455 181.592 90.3292)" stroke="#DF4D1F"/>
<rect x="11.5327" y="228.686" width="3.48564" height="88.3029" rx="1.74194" transform="rotate(-2.50455 11.5327 228.686)" fill="#361BDC"/>
<rect x="126.268" y="48.5553" width="41.7272" height="238.569" rx="4.5" transform="rotate(-2.50455 126.268 48.5553)" stroke="#6F0581"/>
<rect x="188.657" y="331.588" width="33.8564" height="131.23" rx="4.5" transform="rotate(-2.50455 188.657 331.588)" stroke="#FEF632"/>
<rect x="127.713" y="1.78712" width="33.8564" height="131.23" rx="4.5" transform="rotate(-2.50455 127.713 1.78712)" stroke="#FEF632"/>
<rect x="174.528" y="88.3104" width="40.8277" height="131.23" rx="4.5" transform="rotate(-2.50455 174.528 88.3104)" stroke="#FEF632"/>
<rect x="-0.0744702" y="229.194" width="3.48563" height="121.997" rx="1.74193" transform="rotate(-2.50455 -0.0744702 229.194)" fill="#FDF764"/>
</svg>
