<svg width="23" height="23" viewBox="0 0 23 23" fill="none" xmlns="http://www.w3.org/2000/svg">
<g clip-path="url(#clip0_0_18993)">
<path d="M10.5752 1.50408C9.77401 1.53906 9.0191 1.88013 8.4765 2.45225C7.9339 3.02437 7.64806 3.78069 7.68186 4.55481C7.71566 5.32894 8.06633 6.05746 8.65673 6.58012C9.24713 7.10277 10.0289 7.37675 10.83 7.34177C11.6312 7.30679 12.3861 6.96572 12.9287 6.3936C13.4713 5.82148 13.7571 5.06516 13.7233 4.29104C13.6895 3.51691 13.3389 2.78839 12.7485 2.26573C12.1581 1.74308 11.3763 1.4691 10.5752 1.50408ZM3.81846 5.47344C3.33174 5.31958 2.80113 5.35905 2.34335 5.58318C1.88558 5.8073 1.53814 6.19772 1.37747 6.66855C1.2168 7.13937 1.25606 7.65203 1.48661 8.09375C1.71716 8.53547 2.12012 8.87007 2.60684 9.02393L6.92915 10.4209L7.06508 13.5343L5.02917 19.771C4.87888 20.27 4.93588 20.8054 5.18804 21.2633C5.4402 21.7212 5.86761 22.0653 6.37929 22.2225C6.89098 22.3797 7.44654 22.3375 7.92774 22.105C8.40894 21.8724 8.77778 21.4678 8.95576 20.9772L10.7569 15.6477C10.7873 15.5607 10.8443 15.4845 10.9202 15.4293C10.9962 15.374 11.0877 15.3422 11.1825 15.3381C11.2774 15.3339 11.3713 15.3576 11.4518 15.4061C11.5323 15.4545 11.5956 15.5254 11.6336 15.6094L13.8936 20.7292C14.1095 21.2061 14.5111 21.5813 15.0117 21.7738C15.5122 21.9662 16.0716 21.9606 16.5691 21.7581C17.0666 21.5555 17.4624 21.1723 17.6709 20.6911C17.8795 20.2099 17.8842 19.6693 17.684 19.186L15.1198 13.1684L14.9843 10.0653L19.1377 8.33337C19.6091 8.14009 19.9823 7.77399 20.1752 7.31561C20.3681 6.85723 20.3649 6.34412 20.1663 5.88915C19.9677 5.43419 19.59 5.07463 19.1162 4.8896C18.6425 4.70456 18.1115 4.70919 17.6401 4.90247L15.0652 5.9416C14.912 6.00331 14.7876 6.11753 14.716 6.26229C14.3675 6.97011 13.8258 7.57303 13.1494 8.00594C12.473 8.43884 11.6876 8.68527 10.878 8.71861C10.0685 8.75195 9.26554 8.57093 8.55596 8.1951C7.84638 7.81927 7.25713 7.26292 6.85184 6.58615C6.76839 6.44718 6.63443 6.34326 6.47593 6.29452L3.81851 5.47474L3.81846 5.47344Z" fill="white"/>
</g>
<defs>
<clipPath id="clip0_0_18993">
<rect width="22" height="22" fill="white" transform="translate(0 0.962161) scale(1.00267) rotate(-2.5)"/>
</clipPath>
</defs>
</svg>
