<svg width="304" height="553" viewBox="0 0 304 553" fill="none" xmlns="http://www.w3.org/2000/svg">
<line x1="4.37114e-08" y1="0.5" x2="304" y2="0.500027" stroke="#A79CA0" stroke-opacity="0.15"/>
<line x1="4.37114e-08" y1="24.5" x2="304" y2="24.5" stroke="#A79CA0" stroke-opacity="0.15"/>
<line x1="4.37114e-08" y1="48.5" x2="304" y2="48.5" stroke="#A79CA0" stroke-opacity="0.15"/>
<line x1="4.37114e-08" y1="72.5" x2="304" y2="72.5" stroke="#A79CA0" stroke-opacity="0.15"/>
<line x1="4.37114e-08" y1="96.5" x2="304" y2="96.5" stroke="#A79CA0" stroke-opacity="0.15"/>
<line x1="4.37114e-08" y1="120.5" x2="304" y2="120.5" stroke="#A79CA0" stroke-opacity="0.15"/>
<line x1="4.37114e-08" y1="144.5" x2="304" y2="144.5" stroke="#A79CA0" stroke-opacity="0.15"/>
<line x1="4.37114e-08" y1="168.5" x2="304" y2="168.5" stroke="#A79CA0" stroke-opacity="0.15"/>
<line x1="4.37114e-08" y1="192.5" x2="304" y2="192.5" stroke="#A79CA0" stroke-opacity="0.15"/>
<line x1="4.37114e-08" y1="216.5" x2="304" y2="216.5" stroke="#A79CA0" stroke-opacity="0.15"/>
<line x1="4.37114e-08" y1="240.5" x2="304" y2="240.5" stroke="#A79CA0" stroke-opacity="0.15"/>
<line x1="4.37114e-08" y1="264.5" x2="304" y2="264.5" stroke="#A79CA0" stroke-opacity="0.15"/>
<line x1="4.37114e-08" y1="312.5" x2="304" y2="312.5" stroke="#A79CA0" stroke-opacity="0.15"/>
<line x1="4.37114e-08" y1="336.5" x2="304" y2="336.5" stroke="#A79CA0" stroke-opacity="0.15"/>
<line x1="4.37114e-08" y1="360.5" x2="304" y2="360.5" stroke="#A79CA0" stroke-opacity="0.15"/>
<line x1="4.37114e-08" y1="384.5" x2="304" y2="384.5" stroke="#A79CA0" stroke-opacity="0.15"/>
<line x1="4.37114e-08" y1="456.5" x2="304" y2="456.5" stroke="#A79CA0" stroke-opacity="0.15"/>
<line x1="4.37114e-08" y1="480.5" x2="304" y2="480.5" stroke="#A79CA0" stroke-opacity="0.15"/>
<line x1="4.37114e-08" y1="504.5" x2="304" y2="504.5" stroke="#A79CA0" stroke-opacity="0.15"/>
<line x1="4.37114e-08" y1="528.5" x2="304" y2="528.5" stroke="#A79CA0" stroke-opacity="0.15"/>
<line x1="4.37114e-08" y1="552.5" x2="304" y2="552.5" stroke="#A79CA0" stroke-opacity="0.15"/>
<line x1="4.37114e-08" y1="432.5" x2="304" y2="432.5" stroke="#A79CA0" stroke-opacity="0.15"/>
<line x1="4.37114e-08" y1="408.5" x2="304" y2="408.5" stroke="#A79CA0" stroke-opacity="0.15"/>
<line x1="4.37114e-08" y1="288.5" x2="304" y2="288.5" stroke="#A79CA0" stroke-opacity="0.15"/>
</svg>
