<svg width="59" height="61" viewBox="0 0 59 61" fill="none" xmlns="http://www.w3.org/2000/svg">
<path d="M32.1156 19.5114L32.2835 20.4167L32.9514 19.7829L45.3223 8.04426L37.9809 23.4371L37.5845 24.2682L38.4975 24.148L55.4055 21.9227L40.4186 30.0606L39.6094 30.5L40.4186 30.9394L55.4055 39.0773L38.4975 36.852L37.5845 36.7318L37.9809 37.5629L45.3223 52.9557L32.9514 41.2171L32.2835 40.5833L32.1156 41.4886L29.0072 58.2568L25.8988 41.4886L25.731 40.5833L25.063 41.2171L12.6922 52.9557L20.0335 37.5629L20.4299 36.7318L19.5169 36.852L2.60889 39.0773L17.5958 30.9394L18.405 30.5L17.5958 30.0606L2.6089 21.9227L19.5169 24.148L20.4299 24.2682L20.0335 23.4371L12.6922 8.04426L25.063 19.7829L25.731 20.4167L25.8988 19.5114L29.0072 2.74318L32.1156 19.5114Z" stroke="white"/>
</svg>
