<svg width="349" height="88" viewBox="0 0 349 88" fill="none" xmlns="http://www.w3.org/2000/svg">
<path d="M1.00024 85.6664V85.6664C6.60397 84.0834 11.7886 81.2815 16.1832 77.4611L24.7152 70.0438C34.6163 61.4365 49.3546 61.4703 59.2161 70.1229L72.9799 82.1995C79.7054 88.1006 89.9387 87.4432 95.8538 80.7301L102.109 73.6313C113.927 60.219 134.653 59.6814 147.15 72.4628V72.4628C157.108 82.6473 174.244 79.5123 179.955 66.4633C184.522 56.0302 188.779 46.2071 193.5 34.8663C196.841 26.491 197.896 23.5774 202 13.2866V13.2866C208.14 -1.18533 227.747 -3.37038 236.922 9.39485L238.008 10.906C238.668 11.8251 239.259 12.7927 239.774 13.8005L239.966 14.1756C245.05 24.1203 255.277 30.3779 266.446 30.3779V30.3779C270.77 30.3779 274.848 32.3888 277.481 35.819L285.744 46.586C289.824 51.9014 296.143 55.0173 302.843 55.0173H309.5C315.652 55.0173 321.515 57.6226 325.638 62.1877V62.1877C330.846 67.9531 338.251 71.2433 346.02 71.2433H348" stroke="#F97F86" stroke-width="2" stroke-linecap="round" stroke-linejoin="round"/>
</svg>
