<svg width="23" height="23" viewBox="0 0 23 23" fill="none" xmlns="http://www.w3.org/2000/svg">
<g clip-path="url(#clip0_0_10569)">
<path d="M10.5744 1.5049C9.77335 1.53994 9.01852 1.88104 8.47601 2.45316C7.93349 3.02529 7.64773 3.78157 7.68159 4.55563C7.71545 5.3297 8.06615 6.05814 8.65655 6.58071C9.24694 7.10328 10.0287 7.37717 10.8298 7.34213C11.6308 7.30709 12.3857 6.96599 12.9282 6.39386C13.4707 5.82174 13.7565 5.06546 13.7226 4.29139C13.6887 3.51733 13.338 2.78889 12.7476 2.26632C12.1573 1.74375 11.3755 1.46986 10.5744 1.5049ZM3.81854 5.4745C3.33185 5.32068 2.80128 5.3602 2.34356 5.58434C1.88584 5.80849 1.53846 6.1989 1.37784 6.66971C1.21722 7.14051 1.25651 7.65313 1.48708 8.0948C1.71765 8.53647 2.12061 8.87101 2.6073 9.02482L6.9294 10.4213L7.06557 13.5345L5.0303 19.7709C4.88007 20.2699 4.93711 20.8053 5.18928 21.2631C5.44146 21.7209 5.86886 22.065 6.38052 22.2221C6.89218 22.3793 7.4477 22.3371 7.92885 22.1045C8.40999 21.8719 8.77877 21.4672 8.95669 20.9767L10.7573 15.6474C10.7877 15.5604 10.8446 15.4843 10.9206 15.429C10.9966 15.3737 11.088 15.3419 11.1829 15.3378C11.2777 15.3336 11.3716 15.3573 11.4521 15.4058C11.5326 15.4542 11.596 15.5251 11.6339 15.6091L13.8941 20.7283C14.1101 21.2051 14.5117 21.5803 15.0122 21.7727C15.5128 21.9651 16.0721 21.9595 16.5696 21.7569C17.067 21.5543 17.4627 21.1711 17.6712 20.6899C17.8797 20.2087 17.8844 19.6682 17.6841 19.1849L15.1196 13.1679L14.9839 10.0651L19.1369 8.333C19.6082 8.13969 19.9813 7.77359 20.1742 7.31523C20.367 6.85687 20.3638 6.34379 20.1652 5.88888C19.9666 5.43396 19.5888 5.07447 19.1151 4.88948C18.6414 4.70449 18.1105 4.70916 17.6391 4.90247L15.0645 5.94173C14.9113 6.00345 14.7869 6.11767 14.7154 6.26242C14.3669 6.97021 13.8253 7.57314 13.149 8.00606C12.4726 8.43899 11.6873 8.68546 10.8778 8.71887C10.0683 8.75227 9.26547 8.57132 8.55591 8.19558C7.84636 7.81983 7.2571 7.26357 6.85179 6.58688C6.76834 6.44793 6.63438 6.34403 6.47588 6.29531L3.8186 5.47579L3.81854 5.4745Z" fill="white"/>
</g>
<defs>
<clipPath id="clip0_0_10569">
<rect width="22" height="22" fill="white" transform="translate(0 0.963864) scale(1.0026) rotate(-2.50455)"/>
</clipPath>
</defs>
</svg>
