<svg width="9" height="13" viewBox="0 0 9 13" fill="none" xmlns="http://www.w3.org/2000/svg">
<path d="M4.5 12.5L4.07125 12.7572C4.16162 12.9079 4.32437 13 4.5 13C4.67563 13 4.83838 12.9079 4.92875 12.7572L4.5 12.5ZM8 4.5C8 5.45601 7.4446 6.72502 6.62918 8.14147C6.22945 8.83581 5.78207 9.54173 5.33689 10.2361C4.89416 10.9267 4.45115 11.6096 4.07125 12.2428L4.92875 12.7572C5.29885 12.1404 5.73084 11.4745 6.17874 10.7758C6.62418 10.081 7.08305 9.3574 7.49582 8.64039C8.3054 7.23412 9 5.75313 9 4.5H8ZM4.92875 12.2428C4.54885 11.6096 4.10584 10.9267 3.66311 10.2361C3.21793 9.54173 2.77055 8.83581 2.37082 8.14147C1.5554 6.72502 1 5.45601 1 4.5H0C0 5.75313 0.694605 7.23412 1.50418 8.64039C1.91695 9.3574 2.37582 10.081 2.82126 10.7758C3.26916 11.4745 3.70115 12.1404 4.07125 12.7572L4.92875 12.2428ZM1 4.5C1 2.567 2.567 1 4.5 1V0C2.01472 0 0 2.01472 0 4.5H1ZM4.5 1C6.433 1 8 2.567 8 4.5H9C9 2.01472 6.98528 0 4.5 0V1Z" fill="#018DDB"/>
<circle cx="4.5" cy="4.5" r="1" stroke="#018DDB"/>
</svg>
