<svg width="36" height="36" viewBox="0 0 36 36" fill="none" xmlns="http://www.w3.org/2000/svg">
<path d="M12.8216 24.0439L13.8115 24.1853C13.8676 23.7928 13.6864 23.4042 13.3497 23.1948L12.8216 24.0439ZM12.2559 28.0038L11.2659 27.8624C11.2114 28.2443 11.3813 28.6235 11.7027 28.8369C12.0241 29.0503 12.4396 29.0598 12.7704 28.8613L12.2559 28.0038ZM16.4927 25.4617L16.6823 24.4798C16.4403 24.4331 16.1896 24.4774 15.9783 24.6042L16.4927 25.4617ZM27.5349 17.7703C27.5349 21.3978 23.8173 24.6772 18.7674 24.6772V26.6772C24.5064 26.6772 29.5349 22.8765 29.5349 17.7703H27.5349ZM18.7674 10.8633C23.8173 10.8633 27.5349 14.1427 27.5349 17.7703H29.5349C29.5349 12.664 24.5064 8.86328 18.7674 8.86328V10.8633ZM10 17.7703C10 14.1427 13.7176 10.8633 18.7674 10.8633V8.86328C13.0285 8.86328 8 12.664 8 17.7703H10ZM13.3497 23.1948C11.2523 21.8901 10 19.9082 10 17.7703H8C8 20.7437 9.74325 23.3068 12.2934 24.893L13.3497 23.1948ZM13.2458 28.1452L13.8115 24.1853L11.8316 23.9025L11.2659 27.8624L13.2458 28.1452ZM15.9783 24.6042L11.7414 27.1463L12.7704 28.8613L17.0072 26.3192L15.9783 24.6042ZM18.7674 24.6772C18.0478 24.6772 17.3496 24.6087 16.6823 24.4798L16.3032 26.4435C17.0956 26.5966 17.9208 26.6772 18.7674 26.6772V24.6772Z" fill="#03486F" fill-opacity="0.5"/>
<circle cx="25.7442" cy="11.7209" r="4.72093" fill="#FF9595" stroke="white" stroke-width="2"/>
</svg>
