<svg width="51" height="51" viewBox="0 0 51 51" fill="none" xmlns="http://www.w3.org/2000/svg">
<g filter="url(#filter0_d_0_2178)">
<path d="M49.9332 24.4332C50.5223 37.9273 40.0608 49.344 26.5668 49.9332C13.0727 50.5224 1.65594 40.0609 1.06678 26.5668C0.477612 13.0727 10.9391 1.65596 24.4332 1.0668C37.9273 0.477632 49.344 10.9391 49.9332 24.4332Z" fill="#FB6CD0"/>
<g clip-path="url(#clip0_0_2178)">
<path d="M25.0428 15.0283C19.2594 15.2808 14.7762 20.1733 15.0287 25.9568C15.2812 31.7403 20.1737 36.2235 25.9572 35.971C31.7407 35.7185 36.2239 30.8252 35.9714 25.0424C35.7189 19.2596 30.8263 14.7757 25.0428 15.0283ZM25.9001 34.6621C20.8398 34.883 16.5585 30.96 16.3376 25.8997C16.1166 20.8394 20.0397 16.5581 25.1 16.3372C30.1603 16.1162 34.4415 20.0393 34.6625 25.0996C34.8834 30.1599 30.9604 34.4411 25.9001 34.6621ZM29.3982 24.6737L26.1259 24.8166L25.983 21.5443C25.9673 21.183 25.6613 20.9026 25.3 20.9184C24.9388 20.9342 24.6584 21.2402 24.6741 21.6014L24.817 24.8737L21.5447 25.0166C21.1834 25.0324 20.903 25.3384 20.9188 25.6996C20.9346 26.0609 21.2406 26.3413 21.6018 26.3255L24.8741 26.1827L25.017 29.455C25.0328 29.8162 25.3388 30.0966 25.7001 30.0808C26.0613 30.0651 26.3417 29.7591 26.3259 29.3978L26.1831 26.1255L29.4554 25.9826C29.8166 25.9669 30.097 25.6609 30.0813 25.2996C30.0655 24.9383 29.7595 24.6579 29.3982 24.6737Z" fill="white"/>
</g>
</g>
<defs>
<filter id="filter0_d_0_2178" x="-8.15216" y="-8.15216" width="75.4564" height="75.4565" filterUnits="userSpaceOnUse" color-interpolation-filters="sRGB">
<feFlood flood-opacity="0" result="BackgroundImageFix"/>
<feColorMatrix in="SourceAlpha" type="matrix" values="0 0 0 0 0 0 0 0 0 0 0 0 0 0 0 0 0 0 127 0" result="hardAlpha"/>
<feOffset dx="4" dy="4"/>
<feGaussianBlur stdDeviation="6"/>
<feComposite in2="hardAlpha" operator="out"/>
<feColorMatrix type="matrix" values="0 0 0 0 0.0531076 0 0 0 0 0.450411 0 0 0 0 0.670833 0 0 0 0.1 0"/>
<feBlend mode="normal" in2="BackgroundImageFix" result="effect1_dropShadow_0_2178"/>
<feBlend mode="normal" in="SourceGraphic" in2="effect1_dropShadow_0_2178" result="shape"/>
</filter>
<clipPath id="clip0_0_2178">
<rect width="20.5714" height="20.5714" fill="white" transform="translate(14.5715 15.4854) scale(1.01902) rotate(-2.5)"/>
</clipPath>
</defs>
</svg>
