<svg width="46" height="8" viewBox="0 0 46 8" fill="none" xmlns="http://www.w3.org/2000/svg">
<path d="M0.5 3.18188C0.223858 3.18188 0 3.40574 0 3.68188C0 3.95803 0.223858 4.18188 0.5 4.18188V3.18188ZM45.8536 4.03544C46.0488 3.84018 46.0488 3.52359 45.8536 3.32833L42.6716 0.146351C42.4763 -0.0489113 42.1597 -0.0489113 41.9645 0.146351C41.7692 0.341613 41.7692 0.658195 41.9645 0.853458L44.7929 3.68188L41.9645 6.51031C41.7692 6.70557 41.7692 7.02216 41.9645 7.21742C42.1597 7.41268 42.4763 7.41268 42.6716 7.21742L45.8536 4.03544ZM0.5 4.18188H45.5V3.18188H0.5V4.18188Z" fill="#570E5B"/>
</svg>
