<svg width="8" height="8" viewBox="0 0 8 8" fill="none" xmlns="http://www.w3.org/2000/svg">
<path fill-rule="evenodd" clip-rule="evenodd" d="M0.901461 0.0292582C0.567327 0.118103 0.272833 0.358798 0.121596 0.666667C-0.00859149 0.931681 0.000121423 0.660018 0.000121423 4.45609V7.89022L0.0550093 7.94511L0.109897 8H0.394458H0.679018L0.733906 7.94511L0.788794 7.89022V4.53067C0.788794 0.747005 0.777283 1.03944 0.931468 0.903718C0.99122 0.851117 1.04646 0.821897 1.11421 0.80708C1.18305 0.792038 1.58828 0.787962 2.50697 0.793089C3.94512 0.801108 3.87021 0.794779 4.15004 0.931831C4.34334 1.0265 4.56719 1.25085 4.66407 1.447C4.80514 1.73264 4.7951 1.56357 4.80646 3.8422C4.81767 6.09626 4.80792 5.93166 4.93342 5.98413C5.01703 6.01908 5.38837 6.01816 5.47302 5.9828C5.60649 5.92702 5.59746 6.09613 5.59158 3.76314C5.58629 1.66691 5.58617 1.66163 5.54524 1.51762C5.33076 0.763268 4.83051 0.259812 4.09072 0.0538216L3.93409 0.0102159L2.46942 0.00600938C1.23426 0.00246009 0.988553 0.00610326 0.901461 0.0292582ZM7.26573 0.054892L7.21084 0.109784V3.46441C7.21084 5.97119 7.20526 6.84118 7.18878 6.90665C7.15608 7.03653 7.024 7.16255 6.88981 7.19194C6.8153 7.20824 6.44408 7.21223 5.49266 7.20691C4.05423 7.19889 4.12807 7.20513 3.85059 7.06806C3.65445 6.97117 3.43011 6.74731 3.33545 6.55399C3.19443 6.26599 3.20453 6.43615 3.19317 4.1578C3.18196 1.90374 3.19171 2.06834 3.06622 2.01587C2.9826 1.98092 2.61127 1.98184 2.52661 2.0172C2.39314 2.07298 2.40217 1.90387 2.40805 4.23686C2.41335 6.33309 2.41346 6.33837 2.45439 6.48239C2.5456 6.80316 2.66476 7.03854 2.85513 7.27386C3.11956 7.60079 3.48573 7.83072 3.93148 7.94978C4.08223 7.99005 4.10443 7.99061 5.55838 7.99061C7.02869 7.99061 7.03279 7.9905 7.16389 7.94896C7.5178 7.83681 7.79714 7.56648 7.94087 7.19703L7.99012 7.07042L7.99506 3.59035L8 0.110272L7.94487 0.0551362L7.88974 0H7.60518H7.32061L7.26573 0.054892Z" fill="#FB7ED6"/>
</svg>
