<svg width="3" height="3" viewBox="0 0 3 3" fill="none" xmlns="http://www.w3.org/2000/svg">
<g clip-path="url(#clip0_0_14900)">
<path d="M0.375 1.125C0.16875 1.125 0 1.29375 0 1.5C0 1.70625 0.16875 1.875 0.375 1.875C0.58125 1.875 0.75 1.70625 0.75 1.5C0.75 1.29375 0.58125 1.125 0.375 1.125ZM2.625 1.125C2.41875 1.125 2.25 1.29375 2.25 1.5C2.25 1.70625 2.41875 1.875 2.625 1.875C2.83125 1.875 3 1.70625 3 1.5C3 1.29375 2.83125 1.125 2.625 1.125ZM1.5 1.125C1.29375 1.125 1.125 1.29375 1.125 1.5C1.125 1.70625 1.29375 1.875 1.5 1.875C1.70625 1.875 1.875 1.70625 1.875 1.5C1.875 1.29375 1.70625 1.125 1.5 1.125Z" fill="white"/>
</g>
<defs>
<clipPath id="clip0_0_14900">
<rect width="2.1875" height="2.1875" fill="white" transform="scale(1.37143)"/>
</clipPath>
</defs>
</svg>
