<svg width="46" height="37" viewBox="0 0 46 37" fill="none" xmlns="http://www.w3.org/2000/svg">
<path d="M41.2246 9.25C41.2246 9.63947 41.2246 10.0289 41.2246 10.4184C41.2246 22.7842 31.7712 37 14.4237 37C9.16102 37 4.19068 35.4421 0 32.8132C0.779661 32.9105 1.46186 32.9105 2.24153 32.9105C6.62712 32.9105 10.7203 31.45 13.9364 28.9184C9.84322 28.8211 6.33475 26.0947 5.16525 22.3947C5.75 22.4921 6.33475 22.4921 6.91949 22.4921C7.79661 22.4921 8.57627 22.3947 9.35593 22.2C5.0678 21.3237 1.85169 17.5263 1.85169 13.0474V12.95C3.11864 13.6316 4.58051 14.1184 6.13983 14.1184C3.60593 12.5605 1.94915 9.63947 1.94915 6.42632C1.94915 4.67368 2.43644 3.11579 3.2161 1.75263C7.89407 7.4 14.8136 11.1 22.6102 11.4895C22.5127 10.8079 22.4153 10.0289 22.4153 9.34737C22.4153 4.18684 26.6059 0 31.7712 0C34.5 0 36.9364 1.16842 38.6907 2.92105C40.8347 2.53158 42.8814 1.75263 44.6356 0.681579C43.9534 2.82368 42.4915 4.67368 40.5424 5.8421C42.3941 5.64737 44.2458 5.16053 46 4.38158C44.6356 6.23158 43.0763 7.88684 41.2246 9.25Z" fill="#1C3949"/>
</svg>
