<svg width="18" height="18" viewBox="0 0 18 18" fill="none" xmlns="http://www.w3.org/2000/svg">
<g clip-path="url(#clip0_0_13186)">
<path d="M9.35296 13.3828L17.9246 4.96342C18.015 4.87429 18.0244 4.75874 17.9511 4.66351C17.877 4.568 17.7313 4.50819 17.5719 4.50819L0.428612 4.50819C0.269179 4.50819 0.123035 4.568 0.0488895 4.66351C0.016318 4.7059 3.02265e-05 4.75235 3.02245e-05 4.79851C3.0222e-05 4.85629 0.0257459 4.91377 0.0758892 4.96342L8.64751 13.3828C8.72766 13.4614 8.85923 13.5082 9.00023 13.5082C9.14124 13.5082 9.27281 13.4611 9.35296 13.3828Z" fill="#383F43"/>
</g>
<defs>
<clipPath id="clip0_0_13186">
<rect width="17.0315" height="17.0315" fill="white" transform="translate(18) scale(1.05687) rotate(90)"/>
</clipPath>
</defs>
</svg>
