<svg width="38" height="38" viewBox="0 0 38 38" fill="none" xmlns="http://www.w3.org/2000/svg">
<path d="M7.31075 12.6665C7.31075 6.22123 12.5552 0.977248 19 0.977248C25.4448 0.977248 30.6893 6.22123 30.6893 12.6665C30.6893 19.1118 25.4448 24.3558 19 24.3558C12.5552 24.3558 7.31075 19.1118 7.31075 12.6665Z" fill="white" stroke="#FB6CD0"/>
<g filter="url(#filter0_d_0_17322)">
<path d="M19.9382 13.6049H24.8641C25.382 13.6049 25.8024 13.1845 25.8024 12.6666C25.8024 12.1487 25.382 11.7283 24.8641 11.7283H19.9382V7.03701C19.9382 6.51908 19.5178 6.09874 18.9999 6.09874C18.482 6.09874 18.0617 6.51908 18.0617 7.03701V11.7283H13.1357C12.6178 11.7283 12.1975 12.1487 12.1975 12.6666C12.1975 13.1845 12.6178 13.6049 13.1357 13.6049H18.0617V18.7654C18.0617 19.2833 18.482 19.7036 18.9999 19.7036C19.5178 19.7036 19.9382 19.2833 19.9382 18.7654V13.6049Z" fill="#FB6CD0"/>
</g>
<defs>
<filter id="filter0_d_0_17322" x="0" y="0" width="37.9998" height="38" filterUnits="userSpaceOnUse" color-interpolation-filters="sRGB">
<feFlood flood-opacity="0" result="BackgroundImageFix"/>
<feColorMatrix in="SourceAlpha" type="matrix" values="0 0 0 0 0 0 0 0 0 0 0 0 0 0 0 0 0 0 127 0" result="hardAlpha"/>
<feOffset dy="6"/>
<feGaussianBlur stdDeviation="6"/>
<feColorMatrix type="matrix" values="0 0 0 0 0.180392 0 0 0 0 0.403922 0 0 0 0 0.54902 0 0 0 0.25 0"/>
<feBlend mode="normal" in2="BackgroundImageFix" result="effect1_dropShadow_0_17322"/>
<feBlend mode="normal" in="SourceGraphic" in2="effect1_dropShadow_0_17322" result="shape"/>
</filter>
</defs>
</svg>
