<svg width="25" height="24" viewBox="0 0 25 24" fill="none" xmlns="http://www.w3.org/2000/svg">
<path d="M13.4984 17.2321L21.0012 16.9039C22.3675 16.8442 23.3925 15.6858 23.3343 14.3562L22.8768 3.89688C22.8187 2.56725 21.6965 1.50281 20.3301 1.56258L3.86062 2.28296C2.49426 2.34273 1.46931 3.50108 1.52747 4.83071L1.98496 15.29C2.04312 16.6196 3.1653 17.6841 4.53166 17.6243L6.97159 17.5176L7.18691 22.4402L7.19148 22.44L7.19446 22.4383L13.4999 17.232L13.4984 17.2321ZM8.15663 23.6518C7.8427 23.9106 7.44166 24.0329 7.03984 23.9924C6.63802 23.9518 6.26753 23.7517 6.00812 23.435C5.80008 23.179 5.67939 22.8608 5.66443 22.5286L5.51634 19.143L4.60137 19.183C2.41153 19.2788 0.558146 17.5654 0.461533 15.3567L0.00403798 4.89734C-0.0940996 2.68864 1.60261 0.819981 3.79244 0.724197L20.262 0.00381218C22.4518 -0.0919723 24.3052 1.62141 24.4018 3.83017L24.8593 14.2895C24.956 16.4998 23.2592 18.3669 21.0694 18.4627L14.0698 18.7689L8.1551 23.6519L8.15663 23.6518Z" fill="#FB6CD0"/>
</svg>
